<?xml version="1.0"?><svg xmlns="http://www.w3.org/2000/svg" xmlns:xlink="http://www.w3.org/1999/xlink" viewBox="91.05 142.04 102.83 64.51" preserveAspectRatio="xMidYMid" width="100%" height="100%"><clipPath id="42"><rect x="0.3" y="0.3" width="539.4" height="719.15" /></clipPath><g id="drawing"><rect x="91.05" y="142.04" width="100%" height="100%" fill="rgb(255, 255, 255)" /><g id="page" clip-path="url(#42)"><g id="Solid"><path d="M118.69 154.22 L118.69 154.22 L118.99 154.05 L119.29 154.22 L119.29 168.28 L118.99 168.45 L118.69 168.62 Z" stroke="rgb(0, 0, 0)" stroke-width="0" fill-rule="evenodd" stroke-linejoin="miter" fill="rgb(0, 0, 0)" shape-rendering="geometricPrecision" /><line x1="121.58" y1="155.55" x2="121.58" y2="166.95" stroke="rgb(0, 0, 0)" stroke-width="0.6" shape-rendering="auto" /></g><g id="Solid"><path d="M118.69 168.62 L118.69 168.62 L118.99 168.45 L119.29 168.28 L131.46 175.3 L131.46 175.65 L131.46 176 Z" stroke="rgb(0, 0, 0)" stroke-width="0" fill-rule="evenodd" stroke-linejoin="miter" fill="rgb(0, 0, 0)" shape-rendering="geometricPrecision" /></g><g id="Solid"><path d="M131.46 176 L131.46 176 L131.46 175.65 L131.46 175.3 L143.63 168.28 L143.93 168.45 L143.93 168.8 Z" stroke="rgb(0, 0, 0)" stroke-width="0" fill-rule="evenodd" stroke-linejoin="miter" fill="rgb(0, 0, 0)" shape-rendering="geometricPrecision" /><line x1="131.46" y1="172.66" x2="141.34" y2="166.95" stroke="rgb(0, 0, 0)" stroke-width="0.6" shape-rendering="auto" /></g><g id="Solid"><path d="M144.23 168.28 L144.23 168.28 L143.93 168.45 L143.63 168.28 L143.63 154.22 L143.93 154.05 L144.23 153.88 Z" stroke="rgb(0, 0, 0)" stroke-width="0" fill-rule="evenodd" stroke-linejoin="miter" fill="rgb(0, 0, 0)" shape-rendering="geometricPrecision" /></g><g id="Solid"><path d="M144.23 153.88 L144.23 153.88 L143.93 154.05 L143.63 154.22 L131.46 147.2 L131.46 146.85 L131.46 146.5 Z" stroke="rgb(0, 0, 0)" stroke-width="0" fill-rule="evenodd" stroke-linejoin="miter" fill="rgb(0, 0, 0)" shape-rendering="geometricPrecision" /><line x1="141.34" y1="155.55" x2="131.46" y2="149.84" stroke="rgb(0, 0, 0)" stroke-width="0.6" shape-rendering="auto" /></g><g id="Solid"><path d="M131.46 146.5 L131.46 146.5 L131.46 146.85 L131.46 147.2 L119.29 154.22 L118.99 154.05 L118.99 153.7 Z" stroke="rgb(0, 0, 0)" stroke-width="0" fill-rule="evenodd" stroke-linejoin="miter" fill="rgb(0, 0, 0)" shape-rendering="geometricPrecision" /></g><g id="Solid"><path d="M143.93 168.8 L143.93 168.8 L143.93 168.45 L144.23 168.28 L156.36 175.27 L156.36 175.62 L156.06 175.79 Z" stroke="rgb(0, 0, 0)" stroke-width="0" fill-rule="evenodd" stroke-linejoin="miter" fill="rgb(0, 0, 0)" shape-rendering="geometricPrecision" /></g><g id="Solid"><path d="M156.06 175.79 L156.06 175.79 L156.36 175.62 L156.66 175.79 L156.66 190.02 L156.36 190.02 L156.06 190.02 Z" stroke="rgb(0, 0, 0)" stroke-width="0" fill-rule="evenodd" stroke-linejoin="miter" fill="rgb(0, 0, 0)" shape-rendering="geometricPrecision" /></g><g><text xml:space="preserve" text-anchor="start" text-rendering="geometricPrecision"><tspan x="165.24" y="172" font-family="Arial" font-size="10" fill="rgb(0, 0, 0)">N</tspan></text></g><g id="Solid"><path d="M156.66 175.79 L156.66 175.79 L156.36 175.62 L156.36 175.27 L164.46 170.59 L164.61 170.85 L164.76 171.11 Z" stroke="rgb(0, 0, 0)" stroke-width="0" fill-rule="evenodd" stroke-linejoin="miter" fill="rgb(0, 0, 0)" shape-rendering="geometricPrecision" /></g><g id="Solid"><path d="M169.13 163.3 L169.13 163.3 L168.83 163.3 L168.53 163.3 L168.53 154.07 L168.83 154.07 L169.13 154.07 Z" stroke="rgb(0, 0, 0)" stroke-width="0" fill-rule="evenodd" stroke-linejoin="miter" fill="rgb(0, 0, 0)" shape-rendering="geometricPrecision" /></g><g id="Solid"><path d="M172.94 171.14 L172.94 171.14 L173.09 170.88 L173.24 170.62 L181.26 175.25 L181.26 175.6 L181.26 175.95 Z" stroke="rgb(0, 0, 0)" stroke-width="0" fill-rule="evenodd" stroke-linejoin="miter" fill="rgb(0, 0, 0)" shape-rendering="geometricPrecision" /></g><g><text xml:space="preserve" text-anchor="start" text-rendering="geometricPrecision"><tspan x="178.21" y="193.57" font-family="Arial" font-size="10" fill="rgb(0, 0, 0)">X</tspan></text></g><g id="Solid"><line x1="182.56" y1="175.6" x2="182.56" y2="184.9" stroke="rgb(0, 0, 0)" stroke-width="0.6" shape-rendering="auto" /><path d="M180.26 175.37 L180.26 175.37 L179.66 175.02 L179.66 184.9 L180.26 184.9 Z" stroke="rgb(0, 0, 0)" stroke-width="0" fill-rule="evenodd" stroke-linejoin="miter" fill="rgb(0, 0, 0)" shape-rendering="geometricPrecision" /><path d="M182.86 175.02 L182.86 175.02 L182.26 175.37 L182.26 184.9 L182.86 184.9 Z" stroke="rgb(0, 0, 0)" stroke-width="0" fill-rule="evenodd" stroke-linejoin="miter" fill="rgb(0, 0, 0)" shape-rendering="geometricPrecision" /></g><g id="Solid"><path d="M181.26 175.95 L181.26 175.95 L181.26 175.6 L181.26 175.25 L193.58 168.14 L193.73 168.4 L193.88 168.66 Z" stroke="rgb(0, 0, 0)" stroke-width="0" fill-rule="evenodd" stroke-linejoin="miter" fill="rgb(0, 0, 0)" shape-rendering="geometricPrecision" /></g><g><text xml:space="preserve" text-anchor="end" text-rendering="geometricPrecision"><tspan x="110.16" y="150.5" font-family="Arial" font-size="10" fill="rgb(0, 0, 0)">O</tspan><tspan font-family="Arial" dy="2.26" font-size="7.5" fill="rgb(0, 0, 0)">2</tspan><tspan font-family="Arial" dy="-2.26" font-size="10" fill="rgb(0, 0, 0)">N</tspan></text></g><g id="Solid"><path d="M118.99 153.7 L118.99 153.7 L118.99 154.05 L118.69 154.22 L110.64 149.58 L110.79 149.32 L110.94 149.06 Z" stroke="rgb(0, 0, 0)" stroke-width="0" fill-rule="evenodd" stroke-linejoin="miter" fill="rgb(0, 0, 0)" shape-rendering="geometricPrecision" /></g><g><text xml:space="preserve" text-anchor="start" text-rendering="geometricPrecision"><tspan x="119.04" y="204" font-family="Arial" font-size="10" fill="rgb(0, 0, 0)">X = O or S</tspan></text></g></g></g></svg>